<?xml version="1.0" standalone="no"?>
<!DOCTYPE svg PUBLIC "-//W3C//DTD SVG 20010904//EN"
 "http://www.w3.org/TR/2001/REC-SVG-20010904/DTD/svg10.dtd">
<svg version="1.0" xmlns="http://www.w3.org/2000/svg"
 width="960.000000pt" height="960.000000pt" viewBox="0 0 960.000000 960.000000"
 preserveAspectRatio="xMidYMid meet">
<metadata>
Created by potrace 1.14, written by Peter Selinger 2001-2017
</metadata>
<g transform="translate(0.000000,960.000000) scale(0.100000,-0.100000)"
fill="#000000" stroke="none">
<path d="M4460 9189 c-665 -42 -1376 -265 -1956 -614 -166 -100 -220 -137
-379 -255 -363 -271 -695 -611 -951 -972 l-66 -93 796 -3 795 -2 78 63 c467
376 1076 620 1696 678 182 17 583 7 752 -19 564 -87 1050 -294 1505 -640 47
-36 87 -69 88 -74 4 -8 1602 -12 1602 -3 0 8 -70 104 -173 237 -661 854 -1615
1436 -2673 1632 -366 68 -734 89 -1114 65z"/>
<path d="M3764 6528 c-110 -16 -204 -83 -256 -180 -21 -40 -23 -55 -23 -208 0
-156 1 -168 25 -214 32 -63 107 -130 173 -154 107 -40 250 -36 336 8 83 42
146 138 158 239 l6 51 -105 0 -105 0 -6 -46 c-6 -60 -39 -93 -97 -101 -52 -7
-98 14 -123 57 -14 23 -17 54 -17 162 1 145 7 166 56 199 75 49 174 -7 174
-101 l0 -30 110 0 110 0 0 29 c0 16 -9 58 -20 93 -46 149 -202 226 -396 196z"/>
<path d="M7294 6529 c-162 -15 -263 -105 -264 -235 0 -67 16 -111 54 -152 43
-47 89 -68 205 -95 109 -26 151 -47 151 -77 0 -28 -30 -40 -104 -40 -58 0 -67
3 -85 26 -12 15 -21 35 -21 45 0 17 -9 19 -111 19 l-112 0 6 -49 c17 -145 131
-223 327 -224 218 -1 340 91 340 256 0 136 -61 191 -263 238 -117 27 -147 42
-147 74 0 31 26 45 87 45 51 0 93 -25 93 -54 0 -20 16 -23 120 -20 l95 3 -3
41 c-9 140 -154 218 -368 199z"/>
<path d="M2899 6514 c-107 -37 -196 -140 -220 -253 -6 -31 -9 -100 -7 -156 4
-80 10 -112 30 -157 52 -113 139 -178 266 -199 177 -29 334 43 408 188 28 56
29 63 29 198 0 133 -1 143 -29 202 -33 72 -94 134 -164 165 -64 29 -245 36
-313 12z m194 -166 c36 -19 50 -38 58 -81 12 -61 11 -231 -2 -264 -34 -90
-141 -109 -199 -35 -18 22 -20 41 -20 172 0 135 2 150 21 174 35 44 96 59 142
34z"/>
<path d="M1920 6140 l0 -380 210 0 c186 0 215 2 264 20 76 29 139 88 178 167
31 64 33 72 33 182 0 131 -11 178 -58 247 -42 62 -90 99 -160 124 -49 18 -82
20 -262 20 l-205 0 0 -380z m368 199 c18 -6 41 -26 53 -45 19 -31 20 -46 17
-164 l-3 -130 -32 -31 c-28 -29 -37 -32 -95 -33 l-63 -1 -3 208 -2 207 48 0
c27 0 63 -5 80 -11z"/>
<path d="M4270 6140 l0 -380 291 0 c272 0 290 1 285 18 -3 9 -8 50 -12 90 l-7
72 -163 0 -164 0 0 60 0 60 155 0 155 0 0 90 0 90 -155 0 -155 0 0 49 c0 37 4
50 17 55 9 4 82 6 162 5 l146 -1 7 53 c4 30 9 69 12 87 l5 32 -290 0 -289 0 0
-380z"/>
<path d="M4940 6140 l0 -380 110 0 110 0 2 161 3 162 110 -161 110 -161 102
-1 103 0 2 380 3 380 -107 0 -108 0 -2 -142 c0 -79 0 -154 1 -168 l1 -25 -24
29 c-13 16 -66 91 -117 167 l-94 139 -102 0 -103 0 0 -380z"/>
<path d="M5670 6430 l0 -89 98 -3 97 -3 3 -287 2 -288 115 0 115 0 0 290 0
290 100 0 100 0 0 90 0 90 -315 0 -315 0 0 -90z"/>
<path d="M6380 6140 l0 -380 286 0 286 0 -7 68 c-12 124 6 112 -176 112 l-159
0 0 60 0 60 155 0 156 0 -3 88 -3 87 -153 3 -153 3 3 52 3 52 157 3 157 3 5
27 c3 15 8 53 12 85 l6 57 -286 0 -286 0 0 -380z"/>
<path d="M4429 5511 c-61 -13 -147 -60 -178 -99 -69 -82 -62 -220 14 -297 39
-38 76 -54 203 -86 64 -17 122 -35 129 -41 7 -6 13 -21 13 -34 0 -29 -32 -44
-93 -44 -56 0 -89 18 -106 58 l-15 32 -103 0 -103 0 0 -42 c0 -134 133 -228
323 -228 92 0 184 20 235 52 117 72 146 261 54 351 -46 45 -101 68 -226 97
-135 31 -176 74 -99 106 63 27 143 0 143 -48 0 -16 10 -18 110 -18 l110 0 0
28 c0 128 -109 210 -290 218 -47 1 -101 -1 -121 -5z"/>
<path d="M8381 5505 c-70 -20 -108 -44 -161 -101 -73 -80 -85 -118 -85 -279 0
-139 0 -141 33 -207 36 -73 87 -124 161 -160 40 -20 61 -23 171 -23 117 0 128
2 177 27 145 77 201 191 191 395 -4 79 -10 110 -32 159 -56 125 -162 192 -313
200 -61 3 -105 -1 -142 -11z m172 -176 c52 -27 57 -43 57 -207 l0 -154 -29
-29 c-25 -25 -37 -29 -81 -29 -44 0 -56 4 -81 29 l-29 29 0 155 0 155 31 31
c24 24 39 31 70 31 22 0 50 -5 62 -11z"/>
<path d="M9162 5510 c-64 -14 -142 -60 -173 -103 -36 -49 -50 -118 -39 -180
12 -61 21 -77 65 -116 45 -39 85 -56 209 -87 91 -22 136 -44 136 -66 0 -4 -9
-17 -20 -28 -15 -15 -33 -20 -79 -20 -68 0 -111 25 -111 66 0 24 0 24 -111 24
l-112 0 6 -57 c8 -81 45 -129 131 -173 68 -34 71 -35 190 -35 138 0 187 11
248 58 59 45 88 101 94 184 5 59 3 74 -18 113 -31 58 -105 103 -202 124 -162
36 -209 62 -186 105 26 49 161 30 174 -25 6 -23 9 -24 111 -24 l105 0 0 37 c0
82 -63 155 -162 190 -52 18 -196 26 -256 13z"/>
<path d="M0 5232 c0 -319 6 -354 67 -417 67 -67 109 -80 263 -80 127 0 138 2
186 27 28 15 64 42 79 60 57 67 58 78 59 393 l1 290 -117 3 -118 3 0 -271 c0
-175 -4 -278 -11 -292 -14 -26 -69 -49 -100 -41 -13 3 -34 15 -46 26 -23 20
-23 23 -23 299 l0 278 -120 0 -120 0 0 -278z"/>
<path d="M780 5493 c0 -114 -1 -722 0 -735 0 -16 12 -18 105 -18 l105 0 0 161
c0 133 2 160 13 150 8 -6 60 -78 118 -161 l103 -150 103 0 103 0 -2 383 -3
382 -107 3 -108 3 0 -167 c0 -132 -3 -164 -13 -156 -6 6 -59 80 -117 166
l-105 156 -97 0 c-87 0 -98 -2 -98 -17z"/>
<path d="M1530 5425 l0 -85 45 0 45 0 0 -214 0 -215 -42 -3 -43 -3 -3 -82 -3
-83 211 0 210 0 0 85 0 85 -45 0 -45 0 0 215 0 215 45 0 45 0 0 85 0 85 -210
0 -210 0 0 -85z"/>
<path d="M1993 5488 c4 -13 45 -153 93 -313 47 -159 96 -323 107 -362 l20 -73
142 0 142 0 48 158 c46 152 170 559 181 595 5 15 -5 17 -109 17 l-114 0 -52
-187 c-29 -104 -57 -206 -63 -228 -6 -22 -14 -44 -18 -48 -4 -4 -26 61 -49
145 -24 84 -53 189 -66 233 l-23 80 -122 3 -122 3 5 -23z"/>
<path d="M2790 5125 l0 -385 286 0 287 0 -7 73 c-11 116 5 106 -174 109 l-157
3 0 60 0 60 153 3 152 3 0 84 0 85 -155 0 -155 0 0 55 0 55 159 0 c130 0 160
3 164 15 4 8 9 48 13 90 l7 75 -287 0 -286 0 0 -385z"/>
<path d="M3460 5126 l0 -386 115 0 115 0 0 151 0 152 51 -5 c79 -8 100 -35
110 -143 8 -98 24 -130 74 -151 70 -29 225 -11 225 26 0 10 -6 23 -12 27 -29
18 -40 46 -48 128 -11 102 -33 151 -83 184 l-37 24 28 14 c73 38 108 105 100
193 -6 60 -43 113 -104 144 -36 19 -59 21 -286 24 l-248 3 0 -385z m386 187
c7 -10 13 -29 13 -43 0 -48 -19 -60 -98 -60 l-71 0 0 60 0 60 71 0 c57 0 75
-4 85 -17z"/>
<path d="M4930 5425 l0 -85 45 0 45 0 0 -215 0 -215 -45 0 -45 0 0 -85 0 -85
210 0 211 0 -3 83 -3 82 -42 3 -43 3 0 215 0 214 45 0 46 0 -3 83 -3 82 -207
3 -208 2 0 -85z"/>
<path d="M5402 5418 l3 -93 98 -3 97 -3 0 -289 0 -290 115 0 115 0 0 290 0
289 98 3 97 3 0 90 0 90 -313 3 -313 2 3 -92z"/>
<path d="M6166 5133 c-69 -208 -126 -382 -126 -386 0 -4 50 -6 112 -5 l111 3
22 65 22 65 123 0 123 0 20 -67 20 -68 123 0 c68 0 124 3 123 8 0 4 -58 176
-127 382 l-127 375 -146 3 -146 3 -127 -378z m298 22 c16 -58 27 -108 24 -111
-3 -3 -32 -4 -65 -2 l-60 3 30 108 c17 59 33 107 36 107 4 0 19 -47 35 -105z"/>
<path d="M6900 5125 l0 -385 115 0 115 0 0 151 0 152 51 -5 c79 -8 100 -35
110 -143 8 -98 24 -130 74 -151 35 -14 141 -17 184 -5 34 9 51 39 31 54 -33
26 -41 49 -50 132 -11 103 -32 152 -82 184 l-38 24 28 14 c88 46 126 153 87
246 -19 46 -76 92 -131 106 -24 6 -139 11 -268 11 l-226 0 0 -385z m382 188
c21 -19 23 -60 4 -85 -10 -14 -28 -18 -85 -18 l-71 0 0 60 0 60 67 0 c48 0 72
-5 85 -17z"/>
<path d="M7640 5425 l0 -85 45 0 45 0 0 -215 0 -215 -45 0 -45 0 0 -85 0 -85
210 0 211 0 -3 83 -3 82 -42 3 -43 3 0 215 0 214 45 0 46 0 -3 83 -3 82 -207
3 -208 2 0 -85z"/>
<path d="M5410 4486 c-72 -27 -86 -35 -127 -70 -25 -22 -55 -63 -74 -101 -27
-55 -32 -77 -36 -167 -11 -210 42 -329 174 -397 93 -47 257 -52 350 -11 56 25
117 80 143 130 22 43 43 151 32 162 -5 5 -53 7 -108 6 -80 -2 -99 -6 -100 -18
-1 -8 -2 -28 -2 -43 -3 -46 -54 -87 -109 -87 -52 0 -97 23 -112 57 -6 14 -11
85 -11 166 0 160 6 178 67 203 85 36 159 -23 156 -123 -1 -10 29 -13 114 -13
l114 0 -6 38 c-14 84 -18 99 -42 139 -57 99 -150 143 -296 143 -51 -1 -108 -7
-127 -14z"/>
<path d="M2160 4105 l0 -385 283 0 c156 0 286 2 288 5 3 2 0 44 -5 92 l-11 88
-162 3 -163 2 0 60 0 60 155 0 155 0 0 85 0 84 -152 3 -153 3 -3 52 -3 52 163
3 163 3 10 88 11 87 -288 0 -288 0 0 -385z"/>
<path d="M2830 4105 l0 -386 108 3 107 3 5 162 5 163 114 -165 114 -165 98 0
99 0 0 385 0 385 -107 0 -108 0 1 -118 c1 -64 -1 -138 -4 -164 l-5 -48 -104
153 c-58 83 -108 158 -110 165 -4 8 -35 12 -109 12 l-104 0 0 -385z"/>
<path d="M3825 4477 c-3 -6 -4 -179 -3 -382 l3 -370 269 -3 269 -2 -7 72 c-13
129 2 117 -155 120 l-136 3 -3 288 -2 287 -115 0 c-84 0 -117 -3 -120 -13z"/>
<path d="M4430 4198 c0 -327 3 -340 71 -405 64 -61 119 -77 254 -78 105 0 127
3 172 24 29 13 69 41 88 62 63 71 65 80 65 401 l0 289 -117 -3 -118 -3 -2
-274 c-3 -266 -4 -276 -25 -298 -29 -31 -87 -31 -123 0 l-27 22 2 278 1 277
-121 0 -120 0 0 -292z"/>
<path d="M5970 4105 l0 -385 115 0 115 0 0 150 0 150 90 0 89 0 3 -147 3 -148
118 -3 117 -3 0 386 0 385 -120 0 -120 0 0 -140 0 -140 -90 0 -90 0 0 140 0
140 -115 0 -115 0 0 -385z"/>
<path d="M6806 4112 c-69 -207 -126 -380 -126 -385 0 -13 220 -8 225 6 2 6 14
38 25 70 l22 58 120 -3 121 -3 22 -65 22 -65 121 -3 c67 -1 122 1 122 5 0 4
-57 178 -126 386 l-127 377 -147 0 -148 0 -126 -378z m324 -74 c0 -15 -9 -18
-60 -18 -48 0 -60 3 -60 16 0 16 49 193 58 208 5 10 61 -176 62 -206z"/>
<path d="M3092 3295 c-138 -43 -208 -181 -153 -300 37 -79 88 -110 238 -146
125 -29 157 -54 117 -93 -24 -25 -134 -22 -162 4 -12 12 -22 29 -22 40 0 23
-23 26 -133 22 l-78 -4 7 -46 c13 -88 64 -146 162 -183 49 -18 72 -20 172 -17
121 5 173 21 228 72 79 71 94 219 30 292 -40 46 -90 70 -191 95 -123 30 -146
39 -157 60 -28 51 104 85 150 39 11 -11 20 -27 20 -35 0 -12 18 -15 100 -15
l100 0 0 35 c0 44 -31 106 -66 134 -52 41 -128 61 -227 60 -51 0 -111 -6 -135
-14z"/>
<path d="M3668 3302 l-98 -3 0 -74 0 -75 105 0 105 0 0 74 c0 41 -3 76 -7 78
-5 2 -52 2 -105 0z"/>
<path d="M3800 3231 l0 -81 55 0 55 0 2 -287 3 -288 110 0 110 0 3 288 2 287
65 0 65 0 2 -287 3 -288 108 -3 107 -3 0 147 0 147 52 -5 c73 -8 93 -33 101
-132 13 -146 36 -162 236 -158 74 2 137 5 141 7 4 2 15 31 25 65 l18 60 117 0
116 0 20 -62 20 -63 275 0 c236 0 281 2 324 18 58 20 115 64 154 118 l27 37
22 -49 c25 -53 78 -96 147 -120 50 -16 216 -17 272 -1 58 17 122 69 150 121
23 43 23 50 23 328 l0 283 -110 0 -110 0 0 -259 c0 -244 -1 -260 -20 -284 -27
-34 -70 -43 -109 -22 -17 8 -32 17 -33 18 -1 1 -5 124 -8 272 l-5 270 -110 0
-110 0 -3 -75 -3 -75 -58 56 c-87 85 -122 94 -356 94 l-190 0 -5 -248 -5 -248
-74 223 c-41 123 -80 235 -87 250 l-14 27 -129 0 c-88 0 -133 -4 -139 -12 -5
-7 -47 -125 -93 -263 l-83 -252 -17 50 c-17 52 -51 95 -84 108 -18 6 -17 9 12
24 49 25 85 79 91 136 6 65 -2 93 -40 136 -62 70 -51 69 -570 72 l-468 3 0
-80z m841 -113 c5 -7 9 -27 9 -45 0 -42 -21 -53 -99 -53 l-61 0 0 53 c0 30 3
56 6 60 12 12 136 -1 145 -15z m1241 -17 c28 -31 28 -33 28 -165 l0 -134 -31
-26 c-25 -22 -41 -26 -90 -26 l-59 0 0 196 0 197 62 -6 c54 -5 67 -10 90 -36z
m-669 -130 c15 -54 27 -101 27 -105 0 -3 -28 -6 -61 -6 -54 0 -61 2 -56 18 2
9 15 56 28 105 13 48 26 87 29 87 3 0 18 -44 33 -99z"/>
<path d="M3570 2851 l0 -270 101 -3 c55 -2 103 -1 105 1 2 2 4 125 4 273 l0
268 -105 0 -105 0 0 -269z"/>
<path d="M1127 2309 c10 -17 57 -83 106 -147 702 -933 1738 -1555 2867 -1721
254 -37 380 -46 675 -45 310 0 472 13 741 59 1003 170 1961 717 2609 1490 100
119 295 375 295 388 0 4 -358 7 -794 7 l-795 0 -58 -48 c-466 -382 -1076 -630
-1702 -692 -149 -15 -494 -12 -651 5 -597 64 -1179 302 -1644 672 l-79 63
-794 0 -794 0 18 -31z m4383 -919 l0 -40 -55 0 -55 0 0 40 0 40 55 0 55 0 0
-40z m-1720 -85 c30 -15 60 -61 60 -90 0 -11 -10 -15 -39 -15 -30 0 -42 5 -55
25 -19 29 -56 33 -80 9 -10 -9 -16 -33 -16 -59 0 -53 7 -73 31 -85 23 -13 69
4 69 25 0 11 11 15 45 15 38 0 45 -3 45 -19 0 -27 -43 -76 -80 -91 -40 -16
-115 -8 -149 17 -35 26 -60 79 -61 127 0 55 34 120 73 140 41 20 119 20 157 1z
m339 -19 c49 -47 59 -149 22 -210 -53 -85 -193 -87 -254 -5 -46 63 -27 188 36
229 26 17 44 20 99 18 58 -3 71 -8 97 -32z m173 17 c9 -10 32 -47 52 -83 20
-36 36 -60 37 -55 1 6 3 37 4 70 1 33 3 66 4 73 1 7 16 12 41 12 l40 0 0 -150
0 -150 -43 0 c-43 0 -43 0 -88 75 l-44 76 -5 -73 -5 -73 -42 -3 -43 -3 0 150
0 151 38 0 c24 0 45 -7 54 -17z m443 -120 c26 -76 50 -144 53 -150 3 -9 -9
-13 -41 -13 -37 0 -47 4 -52 20 -5 16 -15 20 -56 20 -42 0 -49 -3 -49 -20 0
-17 -7 -20 -49 -20 l-50 0 52 150 52 150 46 0 46 0 48 -137z m256 127 c48 -13
80 -50 90 -103 11 -60 -4 -114 -40 -151 -30 -30 -35 -31 -131 -34 l-100 -4 0
151 0 151 73 0 c39 0 88 -5 108 -10z m219 -92 c0 -57 4 -108 8 -114 12 -18 42
-24 63 -14 17 10 19 22 19 120 l0 110 44 0 c49 0 56 -8 56 -71 l0 -40 43 3 42
3 0 48 -1 47 48 0 48 0 0 -145 0 -145 -45 0 -45 0 0 55 0 55 -44 0 c-49 0 -56
-9 -56 -70 l0 -37 -80 -7 c-93 -9 -140 3 -170 41 -17 22 -20 41 -20 144 l0
119 45 0 45 0 0 -102z m760 -53 l0 -145 -140 0 -140 0 0 145 0 145 140 0 140
0 0 -145z m-470 -235 l0 -40 -55 0 -55 0 0 40 0 40 55 0 55 0 0 -40z"/>
<path d="M3979 1228 c-7 -13 -12 -43 -12 -67 0 -34 5 -48 22 -63 30 -23 46
-23 71 2 25 25 28 111 4 134 -24 24 -71 20 -85 -6z"/>
<path d="M4637 1183 c-3 -16 -9 -36 -12 -45 -6 -15 -2 -18 24 -18 35 0 35 -1
19 51 -13 46 -23 50 -31 12z"/>
<path d="M4912 1168 c3 -68 5 -73 26 -76 36 -5 62 25 62 70 0 58 -14 78 -56
78 l-35 0 3 -72z"/>
</g>
</svg>
